NFP 10-3-14.ufo
<glyph name="numbersign" format="1">
  <advance width="662"/>
  <unicode hex="0023"/>
  <outline>
    <contour>
      <point x="308" y="1" type="curve"/>
      <point x="493" y="584" type="line"/>
      <point x="493" y="584"/>
      <point x="573" y="584"/>
      <point x="573" y="584" type="curve"/>
      <point x="388" y="1" type="line"/>
      <point x="388" y="1"/>
      <point x="308" y="1"/>
    </contour>
    <contour>
      <point x="82" y="1" type="curve"/>
      <point x="267" y="584" type="line"/>
      <point x="267" y="584"/>
      <point x="347" y="584"/>
      <point x="347" y="584" type="curve"/>
      <point x="162" y="1" type="line"/>
      <point x="162" y="1"/>
      <point x="82" y="1"/>
    </contour>
    <contour>
      <point x="63" y="206" type="line"/>
      <point x="551" y="206" type="line"/>
      <point x="521" y="126" type="line"/>
      <point x="33" y="126" type="line"/>
    </contour>
    <contour>
      <point x="132" y="444" type="line"/>
      <point x="620" y="444" type="line"/>
      <point x="590" y="364" type="line"/>
      <point x="102" y="364" type="line"/>
    </contour>
  </outline>
</glyph>
<glyph name="ampersand" format="1">
  <advance width="647"/>
  <unicode hex="0026"/>
  <outline>
    <contour>
      <point x="610.0" y="2.0" type="line"/>
      <point x="585.0" y="-10.0"/>
      <point x="559.0" y="-12.0"/>
      <point x="532.0" y="-12.0" type="curve" smooth="yes"/>
      <point x="439.0" y="-12.0"/>
      <point x="337" y="94"/>
      <point x="255" y="217" type="curve" smooth="yes"/>
      <point x="190" y="316"/>
      <point x="134.0" y="426.0"/>
      <point x="134.0" y="502.0" type="curve"/>
      <point x="135.0" y="630.0"/>
      <point x="205.0" y="695.0"/>
      <point x="289.0" y="695.0" type="curve" smooth="yes"/>
      <point x="380.0" y="695.0"/>
      <point x="448.0" y="621.0"/>
      <point x="448.0" y="537.0" type="curve" smooth="yes"/>
      <point x="448.0" y="411.0"/>
      <point x="368.0" y="372.0"/>
      <point x="278.0" y="325.0" type="curve" smooth="yes"/>
      <point x="205.0" y="287.0"/>
      <point x="140.0" y="251.0"/>
      <point x="140.0" y="178.0" type="curve"/>
      <point x="140.0" y="120.0"/>
      <point x="181.0" y="73.0"/>
      <point x="240.0" y="73.0" type="curve" smooth="yes"/>
      <point x="367.0" y="73.0"/>
      <point x="438.0" y="209.0"/>
      <point x="488.0" y="318.0" type="curve"/>
      <point x="562.0" y="276.0" type="line"/>
      <point x="498.0" y="132.0"/>
      <point x="384.0" y="-12.0"/>
      <point x="240.0" y="-12.0" type="curve" smooth="yes"/>
      <point x="142.0" y="-12.0"/>
      <point x="50.0" y="55.0"/>
      <point x="50.0" y="172.0" type="curve"/>
      <point x="50.0" y="307.0"/>
      <point x="148.0" y="356.0"/>
      <point x="237.0" y="400.0" type="curve" smooth="yes"/>
      <point x="309.0" y="435.0"/>
      <point x="354.0" y="456.0"/>
      <point x="354.0" y="533.0" type="curve" smooth="yes"/>
      <point x="354.0" y="571.0"/>
      <point x="327.0" y="610.0"/>
      <point x="292.0" y="610.0" type="curve" smooth="yes"/>
      <point x="246.0" y="610.0"/>
      <point x="225.0" y="565.0"/>
      <point x="225.0" y="492.0" type="curve"/>
      <point x="225.0" y="450.0"/>
      <point x="272" y="356"/>
      <point x="333" y="268" type="curve" smooth="yes"/>
      <point x="402" y="170"/>
      <point x="490.0" y="80.0"/>
      <point x="552.0" y="80.0" type="curve" smooth="yes"/>
      <point x="575.0" y="80.0"/>
      <point x="596.0" y="83.0"/>
      <point x="617.0" y="92.0" type="curve"/>
    </contour>
  </outline>
</glyph>
<glyph name="comma" format="1">
  <advance width="202"/>
  <unicode hex="002C"/>
  <outline>
    <contour>
      <point x="68" y="-40" type="line"/>
      <point x="74" y="-90"/>
      <point x="55" y="-120"/>
      <point x="19" y="-141" type="curve"/>
      <point x="41" y="-172" type="line"/>
      <point x="86" y="-144"/>
      <point x="115" y="-108"/>
      <point x="117" y="-40" type="curve"/>
      <point x="117" y="75" type="line"/>
      <point x="15" y="75" type="line"/>
      <point x="15" y="-40" type="line"/>
    </contour>
    <contour>
      <point x="58" y="199" type="move" name="_bottom"/>
    </contour>
  </outline>
</glyph>
<glyph name="zero" format="1">
  <advance width="638"/>
  <unicode hex="0030"/>
  <outline>
    <contour>
      <point x="319" y="73" type="curve"/>
      <point x="447" y="73"/>
      <point x="514" y="199"/>
      <point x="514" y="337" type="curve"/>
      <point x="514" y="480"/>
      <point x="447" y="610"/>
      <point x="319" y="610" type="curve"/>
      <point x="191" y="610"/>
      <point x="124" y="480"/>
      <point x="124" y="337" type="curve"/>
      <point x="124" y="199"/>
      <point x="191" y="73"/>
    </contour>
    <contour>
      <point x="319" y="-12" type="curve"/>
      <point x="105" y="-12"/>
      <point x="34" y="161"/>
      <point x="34" y="337" type="curve"/>
      <point x="34" y="518"/>
      <point x="105" y="695"/>
      <point x="319" y="695" type="curve"/>
      <point x="533" y="695"/>
      <point x="604" y="518"/>
      <point x="604" y="337" type="curve"/>
      <point x="604" y="161"/>
      <point x="533" y="-12"/>
    </contour>
  </outline>
</glyph>
<glyph name="one" format="1">
  <advance width="281"/>
  <unicode hex="0031"/>
  <outline>
    <contour>
      <point x="131" y="0" type="line"/>
      <point x="131" y="591" type="line"/>
      <point x="159" y="533" type="line"/>
      <point x="20" y="533" type="line"/>
      <point x="20" y="576" type="line"/>
      <point x="80" y="589"/>
      <point x="141" y="624"/>
      <point x="165" y="685" type="curve"/>
      <point x="221" y="685" type="line"/>
      <point x="221" y="0" type="line"/>
    </contour>
  </outline>
</glyph>
<glyph name="three" format="1">
  <advance width="615"/>
  <unicode hex="0033"/>
  <outline>
    <contour>
      <point x="276" y="322" type="line"/>
      <point x="276" y="405" type="line"/>
      <point x="322" y="405" type="line" smooth="yes"/>
      <point x="476.0" y="405"/>
      <point x="570.0" y="319.526315789"/>
      <point x="570" y="202" type="curve"/>
      <point x="570.0" y="63.1057692308"/>
      <point x="470.0" y="-12.0"/>
      <point x="322" y="-12" type="curve" smooth="yes"/>
      <point x="187" y="-12"/>
      <point x="101" y="60"/>
      <point x="68" y="175" type="curve"/>
      <point x="155" y="210" type="line"/>
      <point x="155" y="210"/>
      <point x="175" y="73"/>
      <point x="322" y="73" type="curve" smooth="yes"/>
      <point x="418.0" y="73.0"/>
      <point x="477.0" y="140.072"/>
      <point x="477" y="204" type="curve"/>
      <point x="477.0" y="276.322580645"/>
      <point x="415.0" y="322"/>
      <point x="322" y="322" type="curve" smooth="yes"/>
    </contour>
    <contour>
      <point x="276" y="405" type="line"/>
      <point x="322" y="405" type="line" smooth="yes"/>
      <point x="399.519379845" y="405"/>
      <point x="447.0" y="440.655172414"/>
      <point x="447" y="499" type="curve"/>
      <point x="447" y="556"/>
      <point x="397" y="610"/>
      <point x="322" y="610" type="curve" smooth="yes"/>
      <point x="190" y="610"/>
      <point x="175.0" y="475.0"/>
      <point x="175" y="475" type="curve"/>
      <point x="88" y="508" type="line"/>
      <point x="119.907549001" y="622.667754222"/>
      <point x="197" y="695"/>
      <point x="322" y="695" type="curve" smooth="yes"/>
      <point x="452" y="695"/>
      <point x="541.0" y="617.75862069"/>
      <point x="541" y="499" type="curve"/>
      <point x="541.0" y="396.964705882"/>
      <point x="458.506726457" y="322"/>
      <point x="322" y="322" type="curve" smooth="yes"/>
      <point x="276" y="322" type="line"/>
    </contour>
  </outline>
</glyph>
<glyph name="four" format="1">
  <advance width="608"/>
  <unicode hex="0034"/>
  <outline>
    <contour>
      <point x="33" y="228" type="line"/>
      <point x="33" y="228"/>
      <point x="354" y="678"/>
      <point x="354" y="678" type="curve"/>
      <point x="415" y="630" type="line"/>
      <point x="98" y="186" type="line"/>
    </contour>
    <contour>
      <point x="544" y="148" type="line"/>
      <point x="544" y="148"/>
      <point x="33.0" y="148.0"/>
      <point x="33" y="148" type="curve"/>
      <point x="33" y="228" type="line"/>
      <point x="544" y="228" type="line"/>
    </contour>
    <contour>
      <point x="354" y="-7" type="line"/>
      <point x="354" y="-7"/>
      <point x="354" y="678"/>
      <point x="354" y="678" type="curve"/>
      <point x="444" y="678" type="line"/>
      <point x="444" y="-7" type="line"/>
    </contour>
  </outline>
</glyph>
<glyph name="five" format="1">
  <advance width="568"/>
  <unicode hex="0035"/>
  <outline>
    <contour>
      <point x="69" y="306" type="line" smooth="yes"/>
      <point x="69" y="306"/>
      <point x="107" y="685"/>
      <point x="107" y="685" type="curve"/>
      <point x="473" y="685" type="line"/>
      <point x="473" y="595" type="line"/>
      <point x="143" y="595" type="line"/>
      <point x="143" y="595"/>
      <point x="192" y="658"/>
      <point x="192" y="658" type="curve"/>
      <point x="150" y="281" type="line"/>
    </contour>
    <contour>
      <point x="150.0" y="281.0" type="curve"/>
      <point x="96.0" y="302.0" type="line"/>
      <point x="118.0" y="407.0"/>
      <point x="209" y="457"/>
      <point x="295" y="457" type="curve" smooth="yes"/>
      <point x="430" y="457"/>
      <point x="517.0" y="361.0"/>
      <point x="517.0" y="224.0" type="curve" smooth="yes"/>
      <point x="517.0" y="92.0"/>
      <point x="423" y="-12"/>
      <point x="281" y="-12" type="curve" smooth="yes"/>
      <point x="166" y="-12"/>
      <point x="43" y="44"/>
      <point x="43" y="192" type="curve"/>
      <point x="134" y="192" type="line"/>
      <point x="134" y="119"/>
      <point x="204" y="76"/>
      <point x="281" y="76" type="curve" smooth="yes"/>
      <point x="374" y="76"/>
      <point x="425.0" y="140.0"/>
      <point x="427.0" y="224.0" type="curve" smooth="yes"/>
      <point x="429.0" y="307.0"/>
      <point x="378" y="372"/>
      <point x="298" y="372" type="curve" smooth="yes"/>
      <point x="235" y="372"/>
      <point x="175.0" y="342.0"/>
    </contour>
  </outline>
</glyph>
<glyph name="six" format="1">
  <advance width="638"/>
  <unicode hex="0036"/>
  <outline>
    <contour>
      <point x="117" y="225" type="line"/>
      <point x="129" y="361"/>
      <point x="234" y="455"/>
      <point x="333" y="455" type="curve"/>
      <point x="460" y="455"/>
      <point x="561" y="347"/>
      <point x="561" y="217" type="curve" smooth="yes"/>
      <point x="561" y="90"/>
      <point x="457" y="-12"/>
      <point x="330" y="-12" type="curve"/>
      <point x="145" y="-12"/>
      <point x="77" y="161"/>
      <point x="77" y="306" type="curve" smooth="yes"/>
      <point x="77" y="522"/>
      <point x="179" y="695"/>
      <point x="346" y="695" type="curve"/>
      <point x="435" y="695"/>
      <point x="516" y="644"/>
      <point x="560" y="566" type="curve"/>
      <point x="491" y="521" type="line"/>
      <point x="468" y="579"/>
      <point x="409" y="612"/>
      <point x="346" y="612" type="curve"/>
      <point x="226" y="612"/>
      <point x="168" y="476"/>
      <point x="168" y="307" type="curve" smooth="yes"/>
      <point x="168" y="208"/>
      <point x="191" y="73"/>
      <point x="330" y="73" type="curve"/>
      <point x="408" y="73"/>
      <point x="469" y="138"/>
      <point x="471" y="217" type="curve" smooth="yes"/>
      <point x="473" y="301"/>
      <point x="414" y="374"/>
      <point x="333" y="374" type="curve"/>
      <point x="253" y="374"/>
      <point x="177" y="311"/>
      <point x="178" y="206" type="curve"/>
    </contour>
  </outline>
</glyph>
<glyph name="seven" format="1">
  <advance width="525"/>
  <unicode hex="0037"/>
  <outline>
    <contour>
      <point x="455" y="605" type="line"/>
      <point x="315" y="438"/>
      <point x="243" y="236"/>
      <point x="243" y="0" type="curve"/>
      <point x="153" y="0" type="line"/>
      <point x="153" y="253"/>
      <point x="237" y="468"/>
      <point x="390" y="647" type="curve"/>
    </contour>
    <contour>
      <point x="40" y="685" type="line"/>
      <point x="40" y="685"/>
      <point x="455" y="685"/>
      <point x="455" y="685" type="curve"/>
      <point x="455" y="605" type="line"/>
      <point x="40" y="605" type="line"/>
    </contour>
  </outline>
</glyph>
<glyph name="eight" format="1">
  <advance width="638"/>
  <unicode hex="0038"/>
  <outline>
    <contour>
      <point x="319" y="320" type="curve" smooth="yes"/>
      <point x="210" y="320"/>
      <point x="125" y="390"/>
      <point x="125" y="504" type="curve" smooth="yes"/>
      <point x="125" y="622"/>
      <point x="214" y="695"/>
      <point x="319" y="695" type="curve" smooth="yes"/>
      <point x="424" y="695"/>
      <point x="513" y="622"/>
      <point x="513" y="504" type="curve" smooth="yes"/>
      <point x="513" y="390"/>
      <point x="427" y="320"/>
    </contour>
    <contour>
      <point x="319" y="402" type="curve" smooth="yes"/>
      <point x="380" y="402"/>
      <point x="423" y="447"/>
      <point x="423" y="504" type="curve" smooth="yes"/>
      <point x="423" y="567"/>
      <point x="380" y="615"/>
      <point x="319" y="615" type="curve" smooth="yes"/>
      <point x="258" y="615"/>
      <point x="215" y="567"/>
      <point x="215" y="504" type="curve" smooth="yes"/>
      <point x="215" y="447"/>
      <point x="258" y="402"/>
    </contour>
    <contour>
      <point x="319" y="70" type="curve" smooth="yes"/>
      <point x="403" y="70"/>
      <point x="463" y="124"/>
      <point x="463" y="193" type="curve" smooth="yes"/>
      <point x="463" y="266"/>
      <point x="403" y="320"/>
      <point x="319" y="320" type="curve" smooth="yes"/>
      <point x="235" y="320"/>
      <point x="175" y="266"/>
      <point x="175" y="193" type="curve" smooth="yes"/>
      <point x="175" y="124"/>
      <point x="235" y="70"/>
    </contour>
    <contour>
      <point x="319" y="-12" type="curve" smooth="yes"/>
      <point x="188" y="-12"/>
      <point x="85" y="66"/>
      <point x="85" y="193" type="curve" smooth="yes"/>
      <point x="85" y="321"/>
      <point x="192" y="400"/>
      <point x="319" y="400" type="curve" smooth="yes"/>
      <point x="446" y="400"/>
      <point x="553" y="321"/>
      <point x="553" y="193" type="curve" smooth="yes"/>
      <point x="553" y="66"/>
      <point x="450" y="-12"/>
    </contour>
  </outline>
</glyph>
<glyph name="nine" format="1">
  <advance width="638"/>
  <unicode hex="0039"/>
  <outline>
    <contour>
      <point x="521" y="458" type="line"/>
      <point x="509" y="322"/>
      <point x="404" y="228"/>
      <point x="305" y="228" type="curve"/>
      <point x="178" y="228"/>
      <point x="77" y="336"/>
      <point x="77" y="466" type="curve" smooth="yes"/>
      <point x="77" y="593"/>
      <point x="181" y="695"/>
      <point x="308" y="695" type="curve"/>
      <point x="493" y="695"/>
      <point x="561" y="522"/>
      <point x="561" y="377" type="curve" smooth="yes"/>
      <point x="561" y="161"/>
      <point x="459" y="-12"/>
      <point x="292" y="-12" type="curve"/>
      <point x="203" y="-12"/>
      <point x="122" y="39"/>
      <point x="78" y="117" type="curve"/>
      <point x="147" y="162" type="line"/>
      <point x="170" y="104"/>
      <point x="229" y="71"/>
      <point x="292" y="71" type="curve"/>
      <point x="412" y="71"/>
      <point x="470" y="207"/>
      <point x="470" y="376" type="curve" smooth="yes"/>
      <point x="470" y="475"/>
      <point x="447" y="610"/>
      <point x="308" y="610" type="curve"/>
      <point x="230" y="610"/>
      <point x="169" y="545"/>
      <point x="167" y="466" type="curve" smooth="yes"/>
      <point x="165" y="382"/>
      <point x="224" y="309"/>
      <point x="305" y="309" type="curve"/>
      <point x="385" y="309"/>
      <point x="461" y="372"/>
      <point x="460" y="477" type="curve"/>
    </contour>
  </outline>
</glyph>
<glyph name="equal" format="1">
  <advance width="565"/>
  <unicode hex="003D"/>
  <outline>
    <contour>
      <point x="459" y="168" type="line"/>
      <point x="459" y="86" type="line"/>
      <point x="105" y="86" type="line"/>
      <point x="105" y="168" type="line"/>
    </contour>
    <contour>
      <point x="105" y="414" type="line"/>
      <point x="459" y="414" type="line"/>
      <point x="459" y="332" type="line"/>
      <point x="105" y="332" type="line"/>
    </contour>
  </outline>
</glyph>
<glyph name="question" format="1">
  <advance width="449"/>
  <unicode hex="003F"/>
  <outline>
    <contour>
      <point x="178" y="182" type="line"/>
      <point x="178" y="270" type="line" smooth="yes"/>
      <point x="178" y="404"/>
      <point x="340" y="421"/>
      <point x="340" y="510" type="curve"/>
      <point x="340" y="587"/>
      <point x="282" y="615"/>
      <point x="230" y="615" type="curve" smooth="yes"/>
      <point x="147" y="615"/>
      <point x="115" y="559"/>
      <point x="102" y="495" type="curve"/>
      <point x="20" y="524" type="line"/>
      <point x="44" y="622"/>
      <point x="96" y="695"/>
      <point x="230" y="695" type="curve" smooth="yes"/>
      <point x="330" y="695"/>
      <point x="429" y="642"/>
      <point x="429" y="510" type="curve"/>
      <point x="429" y="373"/>
      <point x="268" y="363"/>
      <point x="268" y="256" type="curve" smooth="yes"/>
      <point x="268" y="182" type="line"/>
    </contour>
    <component base="period" xOffset="128"/>
  </outline>
</glyph>
<glyph name="B" format="1">
  <advance width="570"/>
  <unicode hex="0042"/>
  <outline>
    <contour>
      <point x="357" y="415"/>
      <point x="407" y="453"/>
      <point x="407" y="505" type="curve" smooth="yes"/>
      <point x="407" y="551"/>
      <point x="366" y="595"/>
      <point x="322" y="595" type="curve" smooth="yes"/>
      <point x="75" y="595" type="line"/>
      <point x="75" y="685" type="line"/>
      <point x="311" y="685" type="line" smooth="yes"/>
      <point x="416" y="685"/>
      <point x="497" y="611"/>
      <point x="497" y="510" type="curve" smooth="yes"/>
      <point x="497" y="411"/>
      <point x="425" y="327"/>
      <point x="295" y="327" type="curve" smooth="yes"/>
      <point x="75" y="327" type="line"/>
      <point x="75" y="415" type="line"/>
      <point x="308" y="415" type="line" smooth="yes"/>
    </contour>
    <contour>
      <point x="404" y="90"/>
      <point x="471" y="132"/>
      <point x="471" y="206" type="curve" smooth="yes"/>
      <point x="471" y="282"/>
      <point x="386" y="327"/>
      <point x="305" y="327" type="curve" smooth="yes"/>
      <point x="55" y="327" type="line"/>
      <point x="55" y="415" type="line"/>
      <point x="318" y="415" type="line" smooth="yes"/>
      <point x="455" y="415"/>
      <point x="561" y="345"/>
      <point x="561" y="206" type="curve" smooth="yes"/>
      <point x="561" y="70"/>
      <point x="473" y="0"/>
      <point x="314" y="0" type="curve" smooth="yes"/>
      <point x="55" y="0" type="line"/>
      <point x="55" y="90" type="line"/>
      <point x="321" y="90" type="line" smooth="yes"/>
    </contour>
    <component base="I"/>
  </outline>
</glyph>
<glyph name="C" format="1">
  <advance width="676"/>
  <unicode hex="0043"/>
  <outline>
    <contour>
      <point x="559" y="452" type="line"/>
      <point x="525" y="546"/>
      <point x="468" y="605"/>
      <point x="359" y="605" type="curve"/>
      <point x="195" y="605"/>
      <point x="120" y="490"/>
      <point x="120" y="341" type="curve" smooth="yes"/>
      <point x="120" y="207"/>
      <point x="204" y="80"/>
      <point x="364" y="80" type="curve"/>
      <point x="454" y="80"/>
      <point x="527" y="123"/>
      <point x="563" y="209" type="curve"/>
      <point x="646" y="169" type="line"/>
      <point x="606" y="70"/>
      <point x="508" y="-12"/>
      <point x="366" y="-12" type="curve"/>
      <point x="153" y="-12"/>
      <point x="30" y="148"/>
      <point x="30" y="337" type="curve" smooth="yes"/>
      <point x="30.0" y="575.0"/>
      <point x="181" y="695"/>
      <point x="363" y="695" type="curve"/>
      <point x="494" y="695"/>
      <point x="599.0" y="620.0"/>
      <point x="643" y="485" type="curve"/>
    </contour>
    <contour>
      <point x="366" y="0" type="move" name="bottom"/>
    </contour>
    <contour>
      <point x="363" y="685" type="move" name="top"/>
    </contour>
  </outline>
</glyph>
<glyph name="E" format="1">
  <advance width="573"/>
  <unicode hex="0045"/>
  <outline>
    <contour>
      <point x="443" y="324" type="line"/>
      <point x="55" y="324" type="line"/>
      <point x="55" y="409" type="line"/>
      <point x="443" y="409" type="line"/>
    </contour>
    <contour>
      <point x="55" y="0" type="line"/>
      <point x="55" y="85" type="line"/>
      <point x="503" y="85" type="line"/>
      <point x="503" y="0" type="line"/>
    </contour>
    <contour>
      <point x="493" y="600" type="line"/>
      <point x="55" y="600" type="line"/>
      <point x="55" y="685" type="line"/>
      <point x="493" y="685" type="line"/>
    </contour>
    <component base="I"/>
    <contour>
      <point x="316.0" y="0.0" type="move" name="bottom"/>
    </contour>
    <contour>
      <point x="316.0" y="685.0" type="move" name="top"/>
    </contour>
    <contour>
      <point x="543.0" y="0.0" type="move" name="ogonek"/>
    </contour>
  </outline>
</glyph>
<glyph name="G" format="1">
  <advance width="698"/>
  <unicode hex="0047"/>
  <outline>
    <contour>
      <point x="663" y="256" type="line"/>
      <point x="382" y="256" type="line"/>
      <point x="382" y="341" type="line"/>
      <point x="663" y="341" type="line"/>
    </contour>
    <contour>
      <point x="583" y="0" type="line"/>
      <point x="551" y="341" type="line"/>
      <point x="663" y="341" type="line"/>
      <point x="663" y="0" type="line"/>
    </contour>
    <component base="C"/>
    <contour>
      <point x="363.0" y="685.0" type="move" name="top"/>
    </contour>
    <contour>
      <point x="365.0" y="0.0" type="move" name="bottom"/>
    </contour>
  </outline>
</glyph>
<glyph name="I" format="1">
  <advance width="200"/>
  <unicode hex="0049"/>
  <outline>
    <component base="l"/>
    <contour>
      <point x="100" y="685" type="move" name="top"/>
    </contour>
    <contour>
      <point x="100" y="0" type="move" name="bottom"/>
    </contour>
    <contour>
      <point x="145" y="0" type="move" name="ogonek"/>
    </contour>
  </outline>
</glyph>
<glyph name="L" format="1">
  <advance width="508"/>
  <unicode hex="004C"/>
  <outline>
    <contour>
      <point x="478" y="0" type="line"/>
      <point x="55" y="0" type="line"/>
      <point x="55" y="90" type="line"/>
      <point x="478" y="90" type="line"/>
    </contour>
    <component base="I"/>
    <contour>
      <point x="99" y="685" type="move" name="top"/>
    </contour>
  </outline>
</glyph>
<glyph name="M" format="1">
  <advance width="775"/>
  <unicode hex="004D"/>
  <outline>
    <contour>
      <point x="436" y="0" type="line"/>
      <point x="347" y="0" type="line"/>
      <point x="562" y="685" type="line"/>
      <point x="661" y="685" type="line"/>
    </contour>
    <contour>
      <point x="337" y="0" type="line"/>
      <point x="113" y="685" type="line"/>
      <point x="212" y="685" type="line"/>
      <point x="426" y="0" type="line"/>
    </contour>
    <component base="I" xOffset="575"/>
    <component base="I"/>
  </outline>
</glyph>
<glyph name="O" format="1">
  <advance width="748"/>
  <unicode hex="004F"/>
  <outline>
    <contour>
      <point x="375" y="610" type="curve" smooth="yes"/>
      <point x="231.0" y="610.0"/>
      <point x="120.0" y="478.593283582"/>
      <point x="120" y="337" type="curve" smooth="yes"/>
      <point x="120.0" y="199.350194553"/>
      <point x="234.0" y="73.0"/>
      <point x="375" y="73" type="curve" smooth="yes"/>
      <point x="515.0" y="73.0"/>
      <point x="630.0" y="199.350194553"/>
      <point x="630" y="337" type="curve" smooth="yes"/>
      <point x="630.0" y="478.593283582"/>
      <point x="518.0" y="610.0"/>
    </contour>
    <contour>
      <point x="375" y="695" type="curve" smooth="yes"/>
      <point x="574" y="695"/>
      <point x="720" y="534"/>
      <point x="720" y="337" type="curve" smooth="yes"/>
      <point x="720" y="144"/>
      <point x="572" y="-12"/>
      <point x="375" y="-12" type="curve" smooth="yes"/>
      <point x="177" y="-12"/>
      <point x="30" y="144"/>
      <point x="30" y="337" type="curve" smooth="yes"/>
      <point x="30" y="534"/>
      <point x="175" y="695"/>
    </contour>
    <contour>
      <point x="375" y="685" type="move" name="top"/>
    </contour>
    <contour>
      <point x="375" y="0" type="move" name="bottom"/>
    </contour>
  </outline>
</glyph>
<glyph name="P" format="1">
  <advance width="541"/>
  <unicode hex="0050"/>
  <outline>
    <contour>
      <point x="419" y="479" type="curve"/>
      <point x="419" y="553"/>
      <point x="366" y="600"/>
      <point x="284" y="600" type="curve" smooth="yes"/>
      <point x="134" y="600" type="line"/>
      <point x="134" y="685" type="line"/>
      <point x="276" y="685" type="line" smooth="yes"/>
      <point x="438" y="685"/>
      <point x="509" y="579"/>
      <point x="509" y="479" type="curve"/>
      <point x="509" y="383"/>
      <point x="442" y="277"/>
      <point x="274" y="277" type="curve" smooth="yes"/>
      <point x="134" y="277" type="line"/>
      <point x="134" y="362" type="line"/>
      <point x="286" y="362" type="line" smooth="yes"/>
      <point x="368" y="362"/>
      <point x="419" y="409"/>
    </contour>
    <component base="I"/>
  </outline>
</glyph>
<glyph name="Q" format="1">
  <advance width="748"/>
  <unicode hex="0051"/>
  <outline>
    <contour>
      <point x="628" y="-70" type="line"/>
      <point x="409" y="187" type="line"/>
      <point x="477" y="246" type="line"/>
      <point x="697" y="-11" type="line"/>
    </contour>
    <component base="O"/>
  </outline>
</glyph>
<glyph name="R" format="1">
  <advance width="540"/>
  <unicode hex="0052"/>
  <outline>
    <contour>
      <point x="254" y="287" type="line"/>
      <point x="343" y="314" type="line"/>
      <point x="530" y="0" type="line"/>
      <point x="418" y="0" type="line"/>
    </contour>
    <component base="P"/>
    <contour>
      <point x="250" y="685" type="move" name="top"/>
    </contour>
    <contour>
      <point x="273" y="0" type="move" name="bottom"/>
    </contour>
  </outline>
</glyph>
<glyph name="S" format="1">
  <advance width="601"/>
  <unicode hex="0053"/>
  <outline>
    <contour>
      <point x="480" y="523" type="line"/>
      <point x="428" y="572"/>
      <point x="395" y="600"/>
      <point x="308" y="600" type="curve"/>
      <point x="232" y="600"/>
      <point x="158" y="564"/>
      <point x="158" y="498" type="curve"/>
      <point x="158" y="351"/>
      <point x="569" y="450"/>
      <point x="569" y="183" type="curve"/>
      <point x="569" y="53"/>
      <point x="468" y="-10"/>
      <point x="308" y="-10" type="curve"/>
      <point x="175" y="-10"/>
      <point x="72" y="55"/>
      <point x="30" y="125" type="curve"/>
      <point x="105" y="176" type="line"/>
      <point x="148" y="119"/>
      <point x="214" y="80"/>
      <point x="308" y="80" type="curve"/>
      <point x="395" y="80"/>
      <point x="479" y="109"/>
      <point x="479" y="175" type="curve"/>
      <point x="479" y="362"/>
      <point x="68" y="241"/>
      <point x="68" y="499" type="curve"/>
      <point x="68" y="610"/>
      <point x="189" y="690"/>
      <point x="308" y="690" type="curve"/>
      <point x="423" y="690"/>
      <point x="491" y="644"/>
      <point x="553" y="577" type="curve"/>
    </contour>
    <contour>
      <point x="308" y="685" type="move" name="top"/>
    </contour>
    <contour>
      <point x="308" y="0" type="move" name="bottom"/>
    </contour>
  </outline>
</glyph>
<glyph name="U" format="1">
  <advance width="633"/>
  <unicode hex="0055"/>
  <outline>
    <contour>
      <point x="316" y="-10" type="curve" smooth="yes"/>
      <point x="475" y="-10"/>
      <point x="578" y="68"/>
      <point x="578" y="237" type="curve" smooth="yes"/>
      <point x="578" y="685" type="line"/>
      <point x="488" y="685" type="line"/>
      <point x="488" y="234" type="line" smooth="yes"/>
      <point x="488" y="128"/>
      <point x="397" y="80"/>
      <point x="316" y="80" type="curve" smooth="yes"/>
      <point x="235" y="80"/>
      <point x="145" y="130"/>
      <point x="145" y="234" type="curve" smooth="yes"/>
      <point x="145" y="685" type="line"/>
      <point x="55" y="685" type="line"/>
      <point x="55" y="237" type="line" smooth="yes"/>
      <point x="55" y="68"/>
      <point x="157" y="-10"/>
    </contour>
    <contour>
      <point x="317" y="685" type="move" name="top"/>
    </contour>
    <contour>
      <point x="317" y="0" type="move" name="bottom"/>
    </contour>
  </outline>
</glyph>
<glyph name="W" format="1">
  <advance width="896"/>
  <unicode hex="0057"/>
  <outline>
    <contour>
      <point x="910" y="685" type="line"/>
      <point x="695" y="0" type="line"/>
      <point x="603" y="0" type="line"/>
      <point x="816" y="685" type="line"/>
    </contour>
    <contour>
      <point x="398" y="685" type="line"/>
      <point x="494" y="685" type="line"/>
      <point x="686" y="0" type="line"/>
      <point x="598" y="0" type="line"/>
    </contour>
    <contour>
      <point x="496" y="685" type="line"/>
      <point x="297" y="0" type="line"/>
      <point x="208" y="0" type="line"/>
      <point x="399" y="685" type="line"/>
    </contour>
    <contour>
      <point x="-14" y="685" type="line"/>
      <point x="81" y="685" type="line"/>
      <point x="293" y="0" type="line"/>
      <point x="200" y="0" type="line"/>
    </contour>
    <contour>
      <point x="448.0" y="685.0" type="move" name="top"/>
    </contour>
  </outline>
</glyph>
<glyph name="X" format="1">
  <advance width="548"/>
  <unicode hex="0058"/>
  <outline>
    <contour>
      <point x="547" y="685" type="line"/>
      <point x="93" y="0" type="line"/>
      <point x="-15" y="0" type="line"/>
      <point x="439" y="685" type="line"/>
    </contour>
    <contour>
      <point x="-6" y="685" type="line"/>
      <point x="102" y="685" type="line"/>
      <point x="564" y="0" type="line"/>
      <point x="456" y="0" type="line"/>
    </contour>
  </outline>
</glyph>
<glyph name="Z" format="1">
  <advance width="608"/>
  <unicode hex="005A"/>
  <outline>
    <contour>
      <point x="30" y="0" type="line"/>
      <point x="30" y="90" type="line"/>
      <point x="578" y="90" type="line"/>
      <point x="578" y="0" type="line"/>
    </contour>
    <contour>
      <point x="568" y="595" type="line"/>
      <point x="50" y="595" type="line"/>
      <point x="50" y="685" type="line"/>
      <point x="568" y="685" type="line"/>
    </contour>
    <contour>
      <point x="30" y="90" type="line"/>
      <point x="495" y="656" type="line"/>
      <point x="568" y="595" type="line"/>
      <point x="102" y="35" type="line"/>
    </contour>
    <contour>
      <point x="312" y="685" type="move" name="top"/>
    </contour>
  </outline>
</glyph>
<glyph name="bracketleft" format="1">
  <advance width="314"/>
  <unicode hex="005B"/>
  <outline>
    <contour>
      <point x="329" y="-100" type="line"/>
      <point x="329" y="-185" type="line"/>
      <point x="55" y="-185" type="line"/>
      <point x="55" y="-100" type="line"/>
    </contour>
    <contour>
      <point x="329" y="770" type="line"/>
      <point x="329" y="685" type="line"/>
      <point x="55" y="685" type="line"/>
      <point x="55" y="770" type="line"/>
    </contour>
    <component base="bar"/>
  </outline>
</glyph>
<glyph name="c" format="1">
  <advance width="498"/>
  <unicode hex="0063"/>
  <outline>
    <contour>
      <point x="391" y="328" type="line"/>
      <point x="378" y="377"/>
      <point x="332" y="430"/>
      <point x="271" y="430" type="curve" smooth="yes"/>
      <point x="172" y="430"/>
      <point x="115" y="347"/>
      <point x="115" y="248" type="curve" smooth="yes"/>
      <point x="115" y="159"/>
      <point x="163" y="69"/>
      <point x="269" y="69" type="curve" smooth="yes"/>
      <point x="325" y="69"/>
      <point x="373" y="118"/>
      <point x="394" y="167" type="curve"/>
      <point x="478" y="132" type="line"/>
      <point x="440.0" y="36.676056338"/>
      <point x="357" y="-12"/>
      <point x="267" y="-12" type="curve" smooth="yes"/>
      <point x="140" y="-12"/>
      <point x="25" y="60"/>
      <point x="25" y="245" type="curve" smooth="yes"/>
      <point x="25" y="414"/>
      <point x="138" y="510"/>
      <point x="269" y="510" type="curve" smooth="yes"/>
      <point x="377" y="510"/>
      <point x="450" y="448"/>
      <point x="476" y="360" type="curve"/>
    </contour>
    <contour>
      <point x="269.0" y="510.0" type="move" name="top"/>
    </contour>
    <contour>
      <point x="267.0" y="-12.0" type="move" name="bottom"/>
    </contour>
  </outline>
</glyph>
<glyph name="e" format="1">
  <advance width="518"/>
  <unicode hex="0065"/>
  <outline>
    <contour>
      <point x="85" y="302" type="line"/>
      <point x="417" y="302" type="line"/>
      <point x="417" y="222" type="line"/>
      <point x="85" y="222" type="line"/>
    </contour>
    <contour>
      <point x="470" y="125" type="line"/>
      <point x="441.0" y="37.7259259259"/>
      <point x="351" y="-12"/>
      <point x="263" y="-12" type="curve" smooth="yes"/>
      <point x="137" y="-12"/>
      <point x="25" y="75"/>
      <point x="25" y="258" type="curve" smooth="yes"/>
      <point x="25" y="429"/>
      <point x="138" y="510"/>
      <point x="250" y="510" type="curve" smooth="yes"/>
      <point x="379" y="510"/>
      <point x="483" y="427"/>
      <point x="470" y="222" type="curve"/>
      <point x="380" y="222" type="line"/>
      <point x="388" y="352"/>
      <point x="334" y="420"/>
      <point x="249" y="420" type="curve" smooth="yes"/>
      <point x="173" y="420"/>
      <point x="115" y="356"/>
      <point x="115" y="248" type="curve" smooth="yes"/>
      <point x="115" y="153"/>
      <point x="170" y="80"/>
      <point x="266" y="80" type="curve" smooth="yes"/>
      <point x="320" y="80"/>
      <point x="367" y="114"/>
      <point x="387" y="161" type="curve"/>
    </contour>
    <contour>
      <point x="470" y="125" type="move" name="ogonek"/>
    </contour>
    <contour>
      <point x="250" y="500" type="move" name="top"/>
    </contour>
    <contour>
      <point x="263" y="0" type="move" name="bottom"/>
    </contour>
  </outline>
</glyph>
<glyph name="f" format="1">
  <advance width="325"/>
  <unicode hex="0066"/>
  <outline>
    <contour>
      <point x="197" y="0" type="line"/>
      <point x="107" y="0" type="line"/>
      <point x="107" y="565" type="line" smooth="yes"/>
      <point x="107" y="644"/>
      <point x="176" y="714"/>
      <point x="303" y="676" type="curve"/>
      <point x="298" y="586" type="line"/>
      <point x="244" y="607"/>
      <point x="197" y="581"/>
      <point x="197" y="539" type="curve" smooth="yes"/>
    </contour>
    <contour>
      <point x="23" y="420" type="line"/>
      <point x="23" y="500" type="line"/>
      <point x="307" y="500" type="line"/>
      <point x="307" y="420" type="line"/>
    </contour>
  </outline>
</glyph>
<glyph name="i" format="1">
  <advance width="200"/>
  <unicode hex="0069"/>
  <outline>
    <component base="dotlessi"/>
    <component base="dotaccent" xOffset="5"/>
    <contour>
      <point x="100" y="500" type="move" name="top"/>
    </contour>
    <contour>
      <point x="145" y="0" type="move" name="ogonek"/>
    </contour>
  </outline>
</glyph>
<glyph name="k" format="1">
  <advance width="501"/>
  <unicode hex="006B"/>
  <outline>
    <contour>
      <point x="67" y="164" type="line"/>
      <point x="337" y="500" type="line"/>
      <point x="449" y="500" type="line"/>
      <point x="121" y="98" type="line" smooth="yes"/>
    </contour>
    <contour>
      <point x="401" y="0" type="line"/>
      <point x="213" y="275" type="line"/>
      <point x="269" y="345" type="line"/>
      <point x="506" y="0" type="line"/>
    </contour>
    <component base="l"/>
    <contour>
      <point x="265" y="-1" type="move" name="bottom"/>
    </contour>
  </outline>
</glyph>
<glyph name="n" format="1">
  <advance width="515"/>
  <unicode hex="006E"/>
  <outline>
    <contour>
      <point x="370" y="0" type="line"/>
      <point x="370" y="329" type="line" smooth="yes"/>
      <point x="370" y="391"/>
      <point x="323" y="424"/>
      <point x="270" y="424" type="curve" smooth="yes"/>
      <point x="205" y="424"/>
      <point x="145" y="372"/>
      <point x="145" y="284" type="curve"/>
      <point x="103" y="284" type="line"/>
      <point x="103" y="440"/>
      <point x="201" y="510"/>
      <point x="288" y="510" type="curve"/>
      <point x="387" y="510"/>
      <point x="460" y="448"/>
      <point x="460" y="359" type="curve" smooth="yes"/>
      <point x="460" y="0" type="line"/>
    </contour>
    <contour>
      <point x="55" y="0" type="line"/>
      <point x="55" y="500" type="line"/>
      <point x="145" y="500" type="line"/>
      <point x="145" y="0" type="line"/>
    </contour>
    <contour>
      <point x="288" y="500" type="move" name="top"/>
    </contour>
  </outline>
</glyph>
<glyph name="r" format="1">
  <advance width="352"/>
  <unicode hex="0072"/>
  <outline>
    <contour>
      <point x="55" y="0" type="line"/>
      <point x="55" y="500" type="line"/>
      <point x="145" y="500" type="line"/>
      <point x="145" y="0" type="line"/>
    </contour>
    <contour>
      <point x="321" y="399" type="line"/>
      <point x="298" y="412"/>
      <point x="278" y="418"/>
      <point x="254" y="418" type="curve" smooth="yes"/>
      <point x="198" y="418"/>
      <point x="145" y="369"/>
      <point x="145" y="314" type="curve"/>
      <point x="106" y="314" type="line"/>
      <point x="106" y="433"/>
      <point x="184" y="510"/>
      <point x="262" y="510" type="curve" smooth="yes"/>
      <point x="293" y="510"/>
      <point x="326" y="500"/>
      <point x="352" y="481" type="curve"/>
    </contour>
    <contour>
      <point x="262" y="500" type="move" name="top"/>
    </contour>
  </outline>
</glyph>
<glyph name="t" format="1">
  <advance width="332"/>
  <unicode hex="0074"/>
  <outline>
    <contour>
      <point x="189" y="612" type="line"/>
      <point x="189" y="135" type="line" smooth="yes"/>
      <point x="189" y="94"/>
      <point x="227" y="74"/>
      <point x="297" y="92" type="curve"/>
      <point x="302" y="6" type="line"/>
      <point x="157" y="-26"/>
      <point x="99" y="38"/>
      <point x="99" y="112" type="curve" smooth="yes"/>
      <point x="99" y="612" type="line"/>
    </contour>
    <contour>
      <point x="15" y="500" type="line"/>
      <point x="299" y="500" type="line"/>
      <point x="299" y="420" type="line"/>
      <point x="15" y="420" type="line"/>
    </contour>
  </outline>
</glyph>
<glyph name="w" format="1">
  <advance width="714"/>
  <unicode hex="0077"/>
  <outline>
    <contour>
      <point x="257" y="0" type="line"/>
      <point x="161" y="0" type="line"/>
      <point x="312" y="500" type="line"/>
      <point x="398" y="500" type="line"/>
    </contour>
    <contour>
      <point x="155" y="0" type="line"/>
      <point x="10" y="500" type="line"/>
      <point x="102" y="500" type="line"/>
      <point x="247" y="0" type="line"/>
    </contour>
    <contour>
      <point x="568" y="0" type="line"/>
      <point x="476" y="0" type="line"/>
      <point x="612" y="500" type="line"/>
      <point x="704" y="500" type="line"/>
    </contour>
    <contour>
      <point x="466" y="0" type="line"/>
      <point x="316" y="500" type="line"/>
      <point x="402" y="500" type="line"/>
      <point x="562" y="0" type="line"/>
    </contour>
    <contour>
      <point x="357" y="500" type="move" name="top"/>
    </contour>
  </outline>
</glyph>
<glyph name="x" format="1">
  <advance width="502"/>
  <unicode hex="0078"/>
  <outline>
    <contour>
      <point x="116" y="0" type="line"/>
      <point x="16" y="0" type="line"/>
      <point x="354" y="500" type="line"/>
      <point x="454" y="500" type="line"/>
    </contour>
    <contour>
      <point x="385" y="0" type="line"/>
      <point x="37" y="500" type="line"/>
      <point x="137" y="500" type="line"/>
      <point x="485" y="0" type="line"/>
    </contour>
  </outline>
</glyph>
<glyph name="y" format="1">
  <advance width="463"/>
  <unicode hex="0079"/>
  <outline>
    <contour>
      <point x="191" y="0" type="line"/>
      <point x="-6" y="500" type="line"/>
      <point x="97" y="500" type="line"/>
      <point x="286" y="0" type="line"/>
    </contour>
    <contour>
      <point x="291" y="0" type="line" smooth="yes"/>
      <point x="268" y="-62"/>
      <point x="224" y="-154"/>
      <point x="105" y="-154" type="curve" smooth="yes"/>
      <point x="80" y="-154"/>
      <point x="51" y="-154"/>
      <point x="25" y="-134" type="curve"/>
      <point x="49" y="-48" type="line"/>
      <point x="70" y="-56"/>
      <point x="89" y="-60"/>
      <point x="105" y="-60" type="curve" smooth="yes"/>
      <point x="158" y="-60"/>
      <point x="182" y="-21"/>
      <point x="190" y="0" type="curve" smooth="yes"/>
      <point x="378" y="500" type="line"/>
      <point x="477" y="500" type="line"/>
    </contour>
    <contour>
      <point x="237" y="500" type="move" name="top"/>
    </contour>
  </outline>
</glyph>
<glyph name="dieresis" format="1">
  <advance width="380"/>
  <unicode hex="00A8"/>
  <outline>
    <contour>
      <point x="228" y="570" type="line"/>
      <point x="228" y="685" type="line"/>
      <point x="330" y="685" type="line"/>
      <point x="330" y="570" type="line"/>
    </contour>
    <contour>
      <point x="50" y="570" type="line"/>
      <point x="50" y="685" type="line"/>
      <point x="152" y="685" type="line"/>
      <point x="152" y="570" type="line"/>
    </contour>
    <contour>
      <point x="190" y="500" type="move" name="_top"/>
    </contour>
  </outline>
</glyph>
<glyph name="paragraph" format="1">
  <advance width="653"/>
  <unicode hex="00B6"/>
  <outline>
    <contour>
      <point x="273" y="326" type="curve"/>
      <point x="228" y="326" type="line" smooth="yes"/>
      <point x="80" y="326"/>
      <point x="25" y="418"/>
      <point x="25" y="503" type="curve"/>
      <point x="25" y="592"/>
      <point x="83" y="685"/>
      <point x="226" y="685" type="curve" smooth="yes"/>
      <point x="273" y="685" type="line"/>
      <point x="273" y="685"/>
      <point x="273" y="326"/>
    </contour>
    <contour>
      <point x="363" y="0" type="line"/>
      <point x="273" y="0" type="line"/>
      <point x="273" y="685" type="line"/>
      <point x="363" y="685" type="line"/>
    </contour>
    <contour>
      <point x="633" y="605" type="line"/>
      <point x="273" y="605" type="line"/>
      <point x="273" y="685" type="line"/>
      <point x="633" y="685" type="line"/>
    </contour>
    <contour>
      <point x="453" y="0" type="line"/>
      <point x="453" y="685" type="line"/>
      <point x="543" y="685" type="line"/>
      <point x="543" y="0" type="line"/>
    </contour>
  </outline>
</glyph>
<glyph name="multiply" format="1">
  <advance width="443"/>
  <unicode hex="00D7"/>
  <outline>
    <contour>
      <point x="346" y="88" type="line"/>
      <point x="41" y="393" type="line"/>
      <point x="98" y="449" type="line"/>
      <point x="403" y="144" type="line"/>
    </contour>
    <contour>
      <point x="40" y="144" type="line"/>
      <point x="345" y="449" type="line"/>
      <point x="402" y="393" type="line"/>
      <point x="97" y="88" type="line"/>
    </contour>
  </outline>
</glyph>
<glyph name="ae" format="1">
  <advance width="857.099649011"/>
  <unicode hex="00E6"/>
  <outline>
    <contour>
      <point x="29" y="388" type="line"/>
      <point x="87" y="478"/>
      <point x="158" y="510"/>
      <point x="251" y="510" type="curve" smooth="yes"/>
      <point x="361" y="510"/>
      <point x="457" y="460"/>
      <point x="452" y="320" type="curve"/>
      <point x="445" y="138" type="line" smooth="yes"/>
      <point x="355" y="142" type="line"/>
      <point x="362" y="324" type="line" smooth="yes"/>
      <point x="365" y="396"/>
      <point x="310" y="420"/>
      <point x="251" y="420" type="curve"/>
      <point x="193" y="420"/>
      <point x="144" y="398"/>
      <point x="109" y="347" type="curve"/>
    </contour>
    <contour>
      <point x="405" y="225" type="line"/>
      <point x="316" y="233"/>
      <point x="115" y="233"/>
      <point x="115" y="139" type="curve"/>
      <point x="115" y="101"/>
      <point x="149" y="71"/>
      <point x="205" y="71" type="curve"/>
      <point x="265" y="71"/>
      <point x="358" y="123"/>
      <point x="358" y="228" type="curve"/>
      <point x="450" y="222" type="line"/>
      <point x="438" y="80"/>
      <point x="324" y="-12"/>
      <point x="197" y="-12" type="curve"/>
      <point x="107" y="-12"/>
      <point x="25" y="28"/>
      <point x="25" y="137" type="curve"/>
      <point x="25" y="272"/>
      <point x="228" y="323"/>
      <point x="413" y="305" type="curve"/>
    </contour>
    <component base="e" xOffset="339"/>
  </outline>
</glyph>
<glyph name="dcroat" format="1">
  <advance width="524"/>
  <unicode hex="0111"/>
  <outline>
    <contour>
      <point x="300" y="539" type="line"/>
      <point x="300" y="624" type="line"/>
      <point x="544" y="624" type="line"/>
      <point x="544" y="539" type="line"/>
    </contour>
    <component base="d"/>
  </outline>
</glyph>
<glyph name="lslash" format="1">
  <advance width="264"/>
  <unicode hex="0142"/>
  <outline>
    <contour>
      <point x="-20" y="341" type="line"/>
      <point x="-20" y="431" type="line"/>
      <point x="284" y="534" type="line"/>
      <point x="284" y="444" type="line"/>
    </contour>
    <component base="l" xOffset="30"/>
  </outline>
</glyph>
<glyph name="OE" format="1">
  <advance width="976"/>
  <unicode hex="0152"/>
  <outline>
    <contour>
      <point x="546" y="533" type="line" smooth="yes"/>
      <point x="501" y="577"/>
      <point x="441" y="605"/>
      <point x="375" y="605" type="curve" smooth="yes"/>
      <point x="231" y="605"/>
      <point x="120" y="476"/>
      <point x="120" y="337" type="curve" smooth="yes"/>
      <point x="120" y="203"/>
      <point x="234" y="80"/>
      <point x="375" y="80" type="curve" smooth="yes"/>
      <point x="441" y="80"/>
      <point x="501" y="107"/>
      <point x="546" y="150" type="curve"/>
    </contour>
    <contour>
      <point x="546" y="32" type="line" smooth="yes"/>
      <point x="496" y="4"/>
      <point x="438" y="-12"/>
      <point x="375" y="-12" type="curve" smooth="yes"/>
      <point x="177" y="-12"/>
      <point x="30" y="144"/>
      <point x="30" y="337" type="curve" smooth="yes"/>
      <point x="30" y="534"/>
      <point x="175" y="695"/>
      <point x="375" y="695" type="curve" smooth="yes"/>
      <point x="438" y="695"/>
      <point x="497" y="679"/>
      <point x="546" y="650" type="curve"/>
    </contour>
    <component base="E" xOffset="403"/>
  </outline>
</glyph>
<glyph name="ring" format="1">
  <advance width="256"/>
  <unicode hex="02DA"/>
  <outline>
    <contour>
      <point x="50" y="622"/>
      <point x="84" y="656"/>
      <point x="128" y="656" type="curve" smooth="yes"/>
      <point x="172" y="656"/>
      <point x="206" y="622"/>
      <point x="206" y="578" type="curve" smooth="yes"/>
      <point x="206" y="534"/>
      <point x="172" y="500"/>
      <point x="128" y="500" type="curve" smooth="yes"/>
      <point x="84" y="500"/>
      <point x="50" y="534"/>
      <point x="50" y="578" type="curve" smooth="yes"/>
    </contour>
    <contour>
      <point x="128" y="500" type="move" name="_top"/>
    </contour>
  </outline>
</glyph>
<glyph name="ogonek" format="1">
  <advance width="327"/>
  <unicode hex="02DB"/>
  <outline>
    <contour>
      <point x="277.0" y="0.0" type="line"/>
      <point x="257.0" y="-23.0"/>
      <point x="244.0" y="-61.0"/>
      <point x="244.0" y="-90.0" type="curve"/>
      <point x="244.0" y="-131.0"/>
      <point x="267.0" y="-142.0"/>
      <point x="293.0" y="-142.0" type="curve"/>
      <point x="308.0" y="-142.0"/>
      <point x="332.0" y="-134.0"/>
      <point x="352.0" y="-123.0" type="curve"/>
      <point x="391.0" y="-184.0" type="line"/>
      <point x="348.0" y="-224.0"/>
      <point x="301.0" y="-234.0"/>
      <point x="260.0" y="-234.0" type="curve"/>
      <point x="195.0" y="-234.0"/>
      <point x="154.0" y="-211.0"/>
      <point x="154.0" y="-141.0" type="curve"/>
      <point x="154.0" y="-83.0"/>
      <point x="200.0" y="-10.0"/>
      <point x="248.0" y="21.0" type="curve"/>
    </contour>
    <contour>
      <point x="276" y="0" type="move" name="_ogonek"/>
    </contour>
  </outline>
</glyph>
<glyph name="tilde" format="1">
  <advance width="473"/>
  <unicode hex="02DC"/>
  <outline>
    <contour>
      <point x="50" y="570" type="line"/>
      <point x="54" y="682" name="inserted"/>
      <point x="151" y="738"/>
      <point x="230" y="688" type="curve" smooth="yes"/>
      <point x="260" y="669" type="line" smooth="yes"/>
      <point x="323" y="633"/>
      <point x="337" y="658"/>
      <point x="341" y="707" type="curve"/>
      <point x="423" y="707" type="line"/>
      <point x="421" y="591" name="inserted"/>
      <point x="313" y="545"/>
      <point x="243" y="589" type="curve" smooth="yes"/>
      <point x="213" y="608" type="line" smooth="yes"/>
      <point x="159" y="642"/>
      <point x="135" y="623"/>
      <point x="131" y="570" type="curve"/>
    </contour>
    <contour>
      <point x="236" y="500" type="move" name="_top"/>
    </contour>
  </outline>
</glyph>
<glyph name="uni0905" format="1">
  <advance width="823"/>
  <unicode hex="0905"/>
  <outline>
    <contour>
      <point x="285" y="336" type="curve"/>
      <point x="263" y="409" type="line"/>
      <point x="417" y="409"/>
      <point x="530" y="323"/>
      <point x="530" y="209" type="curve"/>
      <point x="530.0" y="62.0"/>
      <point x="419.0" y="-6.0"/>
      <point x="268" y="-6" type="curve" smooth="yes"/>
      <point x="104.0" y="-6.0"/>
      <point x="28" y="163"/>
      <point x="10" y="254" type="curve"/>
      <point x="91" y="290" type="line"/>
      <point x="106" y="201"/>
      <point x="168.0" y="76.0"/>
      <point x="276" y="76" type="curve" smooth="yes"/>
      <point x="377.0" y="76.0"/>
      <point x="439.0" y="130.0"/>
      <point x="439" y="205" type="curve"/>
      <point x="439" y="275"/>
      <point x="388" y="356"/>
    </contour>
    <contour>
      <point x="263" y="409" type="line"/>
      <point x="354" y="428"/>
      <point x="407" y="445"/>
      <point x="407" y="519" type="curve" smooth="yes"/>
      <point x="407" y="562"/>
      <point x="375" y="603"/>
      <point x="320" y="603" type="curve" smooth="yes"/>
      <point x="272" y="603"/>
      <point x="234" y="579"/>
      <point x="225" y="533" type="curve"/>
      <point x="149" y="566" type="line"/>
      <point x="162" y="647"/>
      <point x="243" y="684"/>
      <point x="313" y="685" type="curve" smooth="yes"/>
      <point x="416" y="687"/>
      <point x="495" y="619"/>
      <point x="495" y="527" type="curve"/>
      <point x="495" y="409"/>
      <point x="412" y="349"/>
      <point x="299" y="348" type="curve"/>
    </contour>
    <contour>
      <point x="305" y="364" type="curve"/>
      <point x="324" y="422" type="line"/>
      <point x="324" y="422"/>
      <point x="528" y="357"/>
      <point x="680" y="442" type="curve"/>
      <point x="721" y="365" type="line"/>
      <point x="539" y="266"/>
      <point x="305" y="363"/>
    </contour>
    <component base="uni093E" xOffset="539"/>
  </outline>
</glyph>
<glyph name="uni0909" format="1">
  <advance width="585"/>
  <unicode hex="0909"/>
  <outline>
    <contour>
      <point x="276" y="409" type="line"/>
      <point x="367" y="428"/>
      <point x="420" y="445"/>
      <point x="420" y="519" type="curve" smooth="yes"/>
      <point x="420" y="563"/>
      <point x="388" y="605"/>
      <point x="333" y="605" type="curve"/>
      <point x="326" y="657" type="line"/>
      <point x="429" y="659"/>
      <point x="509" y="601"/>
      <point x="509" y="510" type="curve"/>
      <point x="508" y="409"/>
      <point x="425" y="349"/>
      <point x="312" y="348" type="curve"/>
    </contour>
    <contour>
      <point x="298" y="336" type="curve"/>
      <point x="276" y="409" type="line"/>
      <point x="431" y="425"/>
      <point x="543" y="327"/>
      <point x="543" y="221" type="curve"/>
      <point x="543" y="64"/>
      <point x="443" y="-6"/>
      <point x="307" y="-6" type="curve" smooth="yes"/>
      <point x="126" y="-6"/>
      <point x="48" y="133"/>
      <point x="25" y="255" type="curve"/>
      <point x="104" y="290" type="line"/>
      <point x="132" y="171"/>
      <point x="192" y="76"/>
      <point x="315" y="76" type="curve" smooth="yes"/>
      <point x="400" y="76"/>
      <point x="452" y="130"/>
      <point x="452" y="205" type="curve"/>
      <point x="452" y="275"/>
      <point x="401" y="356"/>
    </contour>
    <component base="component_6" xOffset="193"/>
    <component base="component_6" xOffset="-108"/>
  </outline>
</glyph>
<glyph name="uni0921" format="1">
  <advance width="753"/>
  <unicode hex="0921"/>
  <outline>
    <contour>
      <point x="550" y="441" type="line"/>
      <point x="460" y="441" type="line"/>
      <point x="460" y="644" type="line"/>
      <point x="550" y="644" type="line"/>
    </contour>
    <contour>
      <point x="658" y="32"/>
      <point x="545" y="-6"/>
      <point x="393" y="-6" type="curve" smooth="yes"/>
      <point x="247" y="-6"/>
      <point x="132" y="62"/>
      <point x="75" y="128" type="curve"/>
      <point x="125" y="202" type="line"/>
      <point x="179" y="136"/>
      <point x="282" y="76"/>
      <point x="402" y="76" type="curve" smooth="yes"/>
      <point x="501" y="76"/>
      <point x="568" y="107"/>
      <point x="568" y="168" type="curve"/>
      <point x="568" y="220"/>
      <point x="536" y="241"/>
      <point x="493" y="241" type="curve" smooth="yes"/>
      <point x="461" y="241"/>
      <point x="390" y="226"/>
      <point x="356" y="226" type="curve" smooth="yes"/>
      <point x="233" y="226"/>
      <point x="164" y="277"/>
      <point x="164" y="388" type="curve"/>
      <point x="164" y="485"/>
      <point x="238" y="520"/>
      <point x="324" y="520" type="curve" smooth="yes"/>
      <point x="460" y="520" type="line"/>
      <point x="460" y="441" type="line"/>
      <point x="315" y="441" type="line" smooth="yes"/>
      <point x="273" y="441"/>
      <point x="254" y="419"/>
      <point x="254" y="391" type="curve" smooth="yes"/>
      <point x="254" y="345"/>
      <point x="274" y="310"/>
      <point x="358" y="310" type="curve" smooth="yes"/>
      <point x="396" y="310"/>
      <point x="483" y="324"/>
      <point x="529" y="324" type="curve" smooth="yes"/>
      <point x="606" y="324"/>
      <point x="658" y="271"/>
      <point x="658" y="173" type="curve"/>
    </contour>
    <component base="component_6" xOffset="361"/>
    <component base="component_6" xOffset="-108"/>
    <component base="component_6" xOffset="90"/>
  </outline>
</glyph>
<glyph name="uni096A" format="1">
  <advance width="533"/>
  <unicode hex="096A"/>
  <outline>
    <contour>
      <point x="20" y="685" type="curve"/>
      <point x="116" y="685" type="line"/>
      <point x="116.0" y="517.0"/>
      <point x="181.0" y="384.0"/>
      <point x="267" y="384" type="curve" smooth="yes"/>
      <point x="351.279725006" y="384.0"/>
      <point x="417.0" y="517.555748659"/>
      <point x="417" y="685" type="curve"/>
      <point x="513" y="685" type="line"/>
      <point x="513" y="537"/>
      <point x="465" y="412"/>
      <point x="383" y="343" type="curve"/>
      <point x="438" y="311"/>
      <point x="472" y="253"/>
      <point x="472" y="192" type="curve" smooth="yes"/>
      <point x="472.0" y="84.0"/>
      <point x="379.0" y="0.0"/>
      <point x="267" y="0" type="curve" smooth="yes"/>
      <point x="153.763448896" y="0.0"/>
      <point x="61.0" y="83.2669137848"/>
      <point x="61" y="192" type="curve" smooth="yes"/>
      <point x="61" y="253"/>
      <point x="95" y="311"/>
      <point x="150" y="343" type="curve"/>
      <point x="68" y="399"/>
      <point x="20" y="527"/>
    </contour>
    <contour>
      <point x="157" y="192" type="line"/>
      <point x="157" y="138"/>
      <point x="206" y="96"/>
      <point x="267" y="96" type="curve" smooth="yes"/>
      <point x="327" y="96"/>
      <point x="376" y="138"/>
      <point x="376" y="192" type="curve" smooth="yes"/>
      <point x="376" y="245"/>
      <point x="327" y="288"/>
      <point x="267" y="288" type="curve" smooth="yes"/>
      <point x="206" y="288"/>
      <point x="157" y="245"/>
      <point x="157" y="192" type="curve"/>
    </contour>
  </outline>
</glyph>
<glyph name="minus" format="1">
  <advance width="565"/>
  <unicode hex="2212"/>
  <outline>
    <contour>
      <point x="88" y="314" type="line"/>
      <point x="477" y="314" type="line"/>
      <point x="477" y="234" type="line"/>
      <point x="88" y="234" type="line"/>
    </contour>
  </outline>
</glyph>
<glyph name="f_f" format="1">
  <advance width="589"/>
  <unicode hex="FB00"/>
  <outline>
    <contour>
      <point x="197" y="0" type="line"/>
      <point x="107" y="0" type="line"/>
      <point x="107" y="572" type="line" smooth="yes"/>
      <point x="107" y="719"/>
      <point x="309" y="722"/>
      <point x="418" y="663" type="curve"/>
      <point x="413" y="573" type="line"/>
      <point x="373" y="614"/>
      <point x="197" y="654"/>
      <point x="197" y="546" type="curve" smooth="yes"/>
    </contour>
    <contour>
      <point x="23" y="420" type="line"/>
      <point x="23" y="500" type="line"/>
      <point x="307" y="500" type="line"/>
      <point x="307" y="420" type="line"/>
    </contour>
    <component base="f" xOffset="264"/>
  </outline>
</glyph>
<glyph name="fi" format="1">
  <advance width="516"/>
  <unicode hex="FB01"/>
  <outline>
    <contour>
      <point x="197" y="0" type="line"/>
      <point x="107" y="0" type="line"/>
      <point x="107" y="565" type="line" smooth="yes"/>
      <point x="107" y="644"/>
      <point x="176" y="714"/>
      <point x="303" y="676" type="curve"/>
      <point x="298" y="586" type="line"/>
      <point x="244" y="607"/>
      <point x="197" y="581"/>
      <point x="197" y="539" type="curve" smooth="yes"/>
    </contour>
    <contour>
      <point x="23" y="420" type="line"/>
      <point x="23" y="500" type="line"/>
      <point x="381" y="500" type="line"/>
      <point x="381" y="420" type="line"/>
    </contour>
    <component base="dotlessi" xOffset="316"/>
  </outline>
</glyph>
<glyph name="f_f_i" format="1">
  <advance width="780.0"/>
  <unicode hex="FB03"/>
  <outline>
    <contour>
      <point x="635" y="0" type="line"/>
      <point x="635" y="420" type="line"/>
      <point x="566" y="420" type="line"/>
      <point x="566" y="500" type="line"/>
      <point x="725" y="500" type="line"/>
      <point x="725" y="0" type="line"/>
    </contour>
    <component base="f_f"/>
  </outline>
</glyph>
<glyph name="f_f_l" format="1">
  <advance width="780"/>
  <unicode hex="FB04"/>
  <outline>
    <contour>
      <point x="461" y="0" type="line"/>
      <point x="371" y="0" type="line"/>
      <point x="371" y="572" type="line" smooth="yes"/>
      <point x="371" y="719"/>
      <point x="573" y="725"/>
      <point x="682" y="666" type="curve"/>
      <point x="677" y="576" type="line"/>
      <point x="637" y="617"/>
      <point x="461" y="654"/>
      <point x="461" y="546" type="curve" smooth="yes"/>
    </contour>
    <contour>
      <point x="197" y="0" type="line"/>
      <point x="107" y="0" type="line"/>
      <point x="107" y="572" type="line" smooth="yes"/>
      <point x="107" y="719"/>
      <point x="309" y="722"/>
      <point x="418" y="663" type="curve"/>
      <point x="413" y="573" type="line"/>
      <point x="373" y="614"/>
      <point x="197" y="654"/>
      <point x="197" y="546" type="curve" smooth="yes"/>
    </contour>
    <contour>
      <point x="23" y="410" type="line"/>
      <point x="23" y="500" type="line"/>
      <point x="307" y="500" type="line"/>
      <point x="307" y="410" type="line"/>
    </contour>
    <contour>
      <point x="287" y="410" type="line"/>
      <point x="287" y="500" type="line"/>
      <point x="654" y="500" type="line"/>
      <point x="654" y="410" type="line"/>
    </contour>
    <component base="l" xOffset="580"/>
  </outline>
</glyph>
<glyph name="a.ss01" format="1">
  <advance width="539"/>
  <outline>
    <contour>
      <point x="394" y="259" type="line"/>
      <point x="394" y="369"/>
      <point x="330" y="425"/>
      <point x="247" y="425" type="curve"/>
      <point x="151" y="425"/>
      <point x="105" y="341"/>
      <point x="105" y="248" type="curve"/>
      <point x="105" y="137"/>
      <point x="169" y="75"/>
      <point x="250" y="75" type="curve"/>
      <point x="345" y="75"/>
      <point x="394" y="148"/>
      <point x="394" y="259" type="curve"/>
      <point x="454" y="259" type="line"/>
      <point x="454" y="122"/>
      <point x="381" y="-10"/>
      <point x="237" y="-10" type="curve"/>
      <point x="119" y="-10"/>
      <point x="15" y="70"/>
      <point x="15" y="248" type="curve" smooth="yes"/>
      <point x="15" y="418"/>
      <point x="119" y="510"/>
      <point x="241" y="510" type="curve"/>
      <point x="368" y="510"/>
      <point x="454" y="419"/>
      <point x="454" y="259" type="curve"/>
    </contour>
    <component base="dotlessi" xOffset="339"/>
  </outline>
</glyph>
<glyph name="boucle" format="1">
  <advance width="630"/>
  <outline>
    <contour>
      <point x="398" y="259" type="line"/>
      <point x="398" y="369"/>
      <point x="342" y="421"/>
      <point x="267" y="421" type="curve"/>
      <point x="174" y="421"/>
      <point x="129" y="341"/>
      <point x="129" y="248" type="curve"/>
      <point x="129" y="137"/>
      <point x="192" y="79"/>
      <point x="270" y="79" type="curve"/>
      <point x="355" y="79"/>
      <point x="398" y="148"/>
      <point x="398" y="259" type="curve"/>
      <point x="458" y="259" type="line"/>
      <point x="458" y="122"/>
      <point x="391" y="-10"/>
      <point x="257" y="-10" type="curve"/>
      <point x="141" y="-10"/>
      <point x="39" y="70"/>
      <point x="39" y="248" type="curve" smooth="yes"/>
      <point x="39" y="418"/>
      <point x="141" y="510"/>
      <point x="261" y="510" type="curve"/>
      <point x="378" y="510"/>
      <point x="458" y="419"/>
      <point x="458" y="259" type="curve"/>
    </contour>
  </outline>
</glyph>
<glyph name="commaaccent" format="1">
  <advance width="202"/>
  <outline>
    <component base="comma" xOffset="-42" yOffset="-199"/>
    <contour>
      <point x="80" y="0" type="move" name="_bottom"/>
    </contour>
  </outline>
</glyph>
<glyph name="uni091E" format="1">
  <advance width="677"/>
  <outline>
    <contour>
      <point x="344" y="381" type="line"/>
      <point x="422" y="369"/>
      <point x="471" y="379"/>
      <point x="537" y="408" type="curve"/>
      <point x="567" y="327" type="line"/>
      <point x="480" y="289"/>
      <point x="417" y="284"/>
      <point x="343" y="296" type="curve"/>
    </contour>
    <contour>
      <point x="411" y="335" type="curve"/>
      <point x="411" y="257"/>
      <point x="328" y="167"/>
      <point x="220" y="167" type="curve" smooth="yes"/>
      <point x="132" y="167"/>
      <point x="56" y="215"/>
      <point x="31" y="282" type="curve"/>
      <point x="80" y="327" type="line"/>
      <point x="109" y="278"/>
      <point x="151" y="247"/>
      <point x="212" y="247" type="curve"/>
      <point x="286" y="247"/>
      <point x="326" y="297"/>
      <point x="326" y="335" type="curve" smooth="yes"/>
      <point x="326" y="389"/>
      <point x="274" y="429"/>
      <point x="222" y="429" type="curve" smooth="yes"/>
      <point x="195" y="429"/>
      <point x="163" y="414"/>
      <point x="143" y="394" type="curve"/>
      <point x="93" y="451" type="line"/>
      <point x="122" y="483"/>
      <point x="169" y="508"/>
      <point x="220" y="508" type="curve"/>
      <point x="321" y="508"/>
      <point x="411" y="437"/>
    </contour>
    <component base="component_6" xOffset="82"/>
    <component base="uni093E" xOffset="393"/>
    <component base="component_6" xOffset="-108"/>
  </outline>
</glyph>
<glyph name="uni0962" format="1">
  <advance width="0"/>
  <outline>
    <contour>
      <point x="-189" y="-181" type="curve"/>
      <point x="-252" y="-197" type="line"/>
      <point x="-252" y="-86"/>
      <point x="-184" y="-3"/>
      <point x="-111" y="-3" type="curve"/>
      <point x="-24" y="-3"/>
      <point x="17" y="-51"/>
      <point x="17" y="-138" type="curve"/>
      <point x="17" y="-214"/>
      <point x="-58" y="-248"/>
      <point x="-57" y="-294" type="curve"/>
      <point x="-58" y="-312"/>
      <point x="-45" y="-329"/>
      <point x="-27" y="-329" type="curve"/>
      <point x="-1" y="-329"/>
      <point x="9" y="-320"/>
      <point x="28" y="-300" type="curve"/>
      <point x="66" y="-340" type="line"/>
      <point x="40" y="-374"/>
      <point x="-3" y="-386"/>
      <point x="-36" y="-386" type="curve"/>
      <point x="-76" y="-386"/>
      <point x="-125" y="-356"/>
      <point x="-125" y="-294" type="curve"/>
      <point x="-125" y="-219"/>
      <point x="-49" y="-203"/>
      <point x="-49" y="-142" type="curve" smooth="yes"/>
      <point x="-49" y="-89"/>
      <point x="-74" y="-69"/>
      <point x="-108" y="-69" type="curve"/>
      <point x="-151" y="-69"/>
      <point x="-202" y="-108"/>
    </contour>
    <contour>
      <point x="-252" y="-197" type="line"/>
      <point x="-261" y="-122"/>
      <point x="-288" y="-89"/>
      <point x="-335" y="-89" type="curve" smooth="yes"/>
      <point x="-378" y="-89"/>
      <point x="-417" y="-122"/>
      <point x="-417" y="-179" type="curve" smooth="yes"/>
      <point x="-417" y="-230"/>
      <point x="-387" y="-253"/>
      <point x="-327" y="-279" type="curve"/>
      <point x="-354" y="-337" type="line"/>
      <point x="-443" y="-309"/>
      <point x="-483" y="-250"/>
      <point x="-483" y="-185" type="curve" smooth="yes"/>
      <point x="-485" y="-93"/>
      <point x="-426" y="-22"/>
      <point x="-341" y="-22" type="curve"/>
      <point x="-256" y="-22"/>
      <point x="-193" y="-91"/>
      <point x="-202" y="-179" type="curve"/>
    </contour>
  </outline>
</glyph>
<glyph name="uni0963" format="1">
  <advance width="0"/>
  <outline>
    <contour>
      <point x="-23" y="-360" type="line" smooth="yes"/>
      <point x="-43" y="-386"/>
      <point x="-65" y="-407"/>
      <point x="-64" y="-432" type="curve"/>
      <point x="-65" y="-445"/>
      <point x="-52" y="-457"/>
      <point x="-34" y="-457" type="curve"/>
      <point x="-8" y="-457"/>
      <point x="2" y="-448"/>
      <point x="21" y="-428" type="curve"/>
      <point x="59" y="-468" type="line"/>
      <point x="33" y="-502"/>
      <point x="-10" y="-514"/>
      <point x="-43" y="-514" type="curve"/>
      <point x="-83" y="-514"/>
      <point x="-132" y="-487"/>
      <point x="-132" y="-432" type="curve"/>
      <point x="-132" y="-388"/>
      <point x="-105" y="-364"/>
      <point x="-84" y="-339" type="curve"/>
    </contour>
    <contour>
      <point x="-196" y="-181" type="curve"/>
      <point x="-259" y="-197" type="line"/>
      <point x="-259" y="-86"/>
      <point x="-191" y="-3"/>
      <point x="-118" y="-3" type="curve"/>
      <point x="-31" y="-3"/>
      <point x="10" y="-51"/>
      <point x="10" y="-138" type="curve"/>
      <point x="10" y="-214"/>
      <point x="-65" y="-248"/>
      <point x="-64" y="-294" type="curve"/>
      <point x="-65" y="-312"/>
      <point x="-52" y="-329"/>
      <point x="-34" y="-329" type="curve"/>
      <point x="-8" y="-329"/>
      <point x="2" y="-320"/>
      <point x="21" y="-300" type="curve"/>
      <point x="59" y="-340" type="line"/>
      <point x="33" y="-374"/>
      <point x="-10" y="-386"/>
      <point x="-43" y="-386" type="curve"/>
      <point x="-83" y="-386"/>
      <point x="-132" y="-356"/>
      <point x="-132" y="-294" type="curve"/>
      <point x="-132" y="-219"/>
      <point x="-56" y="-203"/>
      <point x="-56" y="-142" type="curve" smooth="yes"/>
      <point x="-56" y="-89"/>
      <point x="-81" y="-69"/>
      <point x="-115" y="-69" type="curve"/>
      <point x="-158" y="-69"/>
      <point x="-209" y="-108"/>
    </contour>
    <contour>
      <point x="-259" y="-197" type="line"/>
      <point x="-268" y="-122"/>
      <point x="-295" y="-89"/>
      <point x="-342" y="-89" type="curve" smooth="yes"/>
      <point x="-385" y="-89"/>
      <point x="-424" y="-122"/>
      <point x="-424" y="-179" type="curve" smooth="yes"/>
      <point x="-424" y="-230"/>
      <point x="-394" y="-253"/>
      <point x="-334" y="-279" type="curve"/>
      <point x="-361" y="-337" type="line"/>
      <point x="-450" y="-309"/>
      <point x="-490" y="-250"/>
      <point x="-490" y="-185" type="curve" smooth="yes"/>
      <point x="-492" y="-93"/>
      <point x="-433" y="-22"/>
      <point x="-348" y="-22" type="curve"/>
      <point x="-263" y="-22"/>
      <point x="-200" y="-91"/>
      <point x="-209" y="-179" type="curve"/>
    </contour>
  </outline>
</glyph>
<glyph name="uni097E" format="1">
  <advance width="675"/>
  <outline>
    <contour>
      <point x="522" y="480" type="line"/>
      <point x="432" y="480" type="line"/>
      <point x="432" y="644" type="line"/>
      <point x="522" y="644" type="line"/>
    </contour>
    <contour>
      <point x="630" y="174"/>
      <point x="517.0" y="144.0"/>
      <point x="365" y="144" type="curve" smooth="yes"/>
      <point x="219" y="144"/>
      <point x="104" y="187"/>
      <point x="47" y="229" type="curve"/>
      <point x="97" y="303" type="line"/>
      <point x="151" y="263"/>
      <point x="254" y="226"/>
      <point x="374" y="226" type="curve" smooth="yes"/>
      <point x="473.0" y="226.0"/>
      <point x="540" y="242"/>
      <point x="540" y="276" type="curve"/>
      <point x="540.0" y="315.722222222"/>
      <point x="508" y="331"/>
      <point x="465" y="331" type="curve" smooth="yes"/>
      <point x="433" y="331"/>
      <point x="362" y="316"/>
      <point x="328" y="316" type="curve" smooth="yes"/>
      <point x="205.0" y="316.0"/>
      <point x="136" y="353"/>
      <point x="136" y="433" type="curve"/>
      <point x="136" y="526"/>
      <point x="210.0" y="559.0"/>
      <point x="296" y="559" type="curve" smooth="yes"/>
      <point x="432" y="559" type="line"/>
      <point x="432" y="480" type="line"/>
      <point x="287" y="480" type="line" smooth="yes"/>
      <point x="245.0" y="480.0"/>
      <point x="226" y="461"/>
      <point x="226" y="436" type="curve" smooth="yes"/>
      <point x="226" y="414"/>
      <point x="246.0" y="400.0"/>
      <point x="330" y="400" type="curve" smooth="yes"/>
      <point x="368" y="400"/>
      <point x="455" y="414"/>
      <point x="501" y="414" type="curve" smooth="yes"/>
      <point x="578" y="414"/>
      <point x="630.0" y="367.333333333"/>
      <point x="630" y="281" type="curve"/>
    </contour>
    <component base="component_6" xOffset="218" yOffset="-605"/>
    <component base="component_6" xOffset="-42" yOffset="-605"/>
    <component base="component_6" xOffset="62"/>
    <component base="component_6" xOffset="-108"/>
    <component base="component_6" xOffset="283"/>
  </outline>
</glyph>
